<?xml version="1.0" ?>
<svg baseProfile="full" height="433px" version="1.1" viewBox="-0.5576929725 -0.7118734724999999 11.706080945 8.447246945" width="600px" xmlns="http://www.w3.org/2000/svg" xmlns:ev="http://www.w3.org/2001/xml-events" xmlns:xlink="http://www.w3.org/1999/xlink">
	<defs/>
	<path d="M 3.3125,6.168 C 3.359375,6.558625 3.625,6.9805 4.09375,6.9805 C 4.3125,6.9805 4.921875,6.839875 4.921875,6.027375 L 4.921875,5.464875 L 4.671875,5.464875 L 4.671875,6.027375 C 4.671875,6.6055 4.421875,6.668 4.3125,6.668 C 3.984375,6.668 3.9375,6.214875 3.9375,6.168 L 3.9375,4.183625 C 3.9375,3.76175 3.9375,3.371125 3.578125,2.996125 C 3.1875,2.6055 2.6875,2.44925 2.21875,2.44925 C 1.390625,2.44925 0.703125,2.918 0.703125,3.57425 C 0.703125,3.871125 0.90625,4.043 1.171875,4.043 C 1.453125,4.043 1.625,3.839875 1.625,3.589875 C 1.625,3.464875 1.578125,3.13675 1.109375,3.13675 C 1.390625,2.777375 1.875,2.668 2.1875,2.668 C 2.6875,2.668 3.25,3.058625 3.25,3.94925 L 3.25,4.308625 C 2.734375,4.339875 2.046875,4.371125 1.421875,4.668 C 0.671875,5.01175 0.421875,5.527375 0.421875,5.964875 C 0.421875,6.777375 1.390625,7.027375 2.015625,7.027375 C 2.671875,7.027375 3.125,6.621125 3.3125,6.168 M 3.25,4.527375 L 3.25,5.527375 C 3.25,6.464875 2.53125,6.808625 2.078125,6.808625 C 1.59375,6.808625 1.1875,6.464875 1.1875,5.964875 C 1.1875,5.418 1.609375,4.589875 3.25,4.527375"/>
	<path d="M 6.70007,3.152375 L 6.70007,-0.003874999999999851 L 5.26257,0.10550000000000015 L 5.26257,0.41800000000000015 C 5.965695,0.41800000000000015 6.04382,0.48050000000000015 6.04382,0.9805000000000001 L 6.04382,6.918 L 6.29382,6.918 C 6.29382,6.902375 6.371945,6.76175 6.653195,6.293 C 6.79382,6.527375 7.215695,7.027375 7.95007,7.027375 C 9.13757,7.027375 10.16882,6.043 10.16882,4.76175 C 10.16882,3.496125 9.20007,2.51175 8.059445,2.51175 C 7.278195,2.51175 6.85632,2.9805 6.70007,3.152375 M 6.73132,5.777375 L 6.73132,3.7305 C 6.73132,3.543 6.73132,3.527375 6.840695,3.371125 C 7.23132,2.808625 7.778195,2.7305 8.01257,2.7305 C 8.465695,2.7305 8.82507,2.996125 9.059445,3.371125 C 9.32507,3.777375 9.340695,4.339875 9.340695,4.76175 C 9.340695,5.121125 9.32507,5.714875 9.04382,6.168 C 8.82507,6.4805 8.45007,6.808625 7.91882,6.808625 C 7.465695,6.808625 7.10632,6.57425 6.871945,6.19925 C 6.73132,5.996125 6.73132,5.964875 6.73132,5.777375"/>
</svg>
